<svg width="558" height="80" viewBox="0 0 558 80" fill="none" xmlns="http://www.w3.org/2000/svg">
<g clip-path="url(#clip0_2_2)">
<path d="M557.647 0H315.294V80H557.647V0Z" fill="#244D66"/>
<path d="M514.493 69.4118V16.8716H494.118V10.5882H547.059V16.8716H526.664V69.4118H514.493Z" fill="white"/>
<path d="M467.628 70.5882C464.783 70.5882 462.191 70.2648 459.951 69.6558C457.671 69.0279 455.625 68.0955 453.871 66.8967C452.118 65.6979 450.578 64.1947 449.331 62.4631C448.084 60.7505 447.071 58.7716 446.292 56.5833L445.882 55.4035L453.52 52.3019L453.969 53.6719C454.514 55.3655 455.274 56.8878 456.209 58.2197C457.145 59.5327 458.216 60.6554 459.444 61.5688C460.652 62.4821 462.035 63.1862 463.516 63.6619C465.017 64.1566 466.634 64.404 468.329 64.404C469.596 64.404 470.862 64.2327 472.109 63.8902C473.317 63.5477 474.428 63.053 475.383 62.387C476.298 61.759 477.058 60.9598 477.604 60.0465C478.13 59.1712 478.403 58.1436 478.403 56.9448C478.403 55.4797 478.033 54.2238 477.273 53.1011C476.454 51.8833 475.363 50.7606 474.038 49.7521C472.655 48.6865 471.037 47.678 469.245 46.7266C467.374 45.7371 465.484 44.7666 463.555 43.7772C461.607 42.7877 459.658 41.7411 457.788 40.6375C455.839 39.5148 454.086 38.2399 452.566 36.8318C451.007 35.4046 449.74 33.7872 448.766 32.0176C447.772 30.1908 447.266 28.0597 447.266 25.7192C447.266 23.4167 447.714 21.2284 448.591 19.2495C449.487 17.2515 450.793 15.4818 452.507 14.0357C454.202 12.5895 456.307 11.4478 458.762 10.6296C461.198 9.8304 463.984 9.41177 467.082 9.41177C469.868 9.41177 472.401 9.71623 474.623 10.3061C476.883 10.915 478.89 11.8094 480.605 12.9891C482.319 14.1689 483.82 15.6531 485.008 17.3847C486.197 19.0973 487.152 21.0762 487.872 23.3025L488.243 24.4252L480.897 27.7362L480.429 26.3281C479.884 24.7106 479.202 23.2264 478.383 21.8944C477.584 20.6005 476.61 19.4778 475.5 18.5645C474.408 17.6701 473.122 16.947 471.68 16.4523C470.219 15.9576 468.543 15.7102 466.673 15.7102C465.056 15.7102 463.633 15.9385 462.445 16.3572C461.275 16.7948 460.282 17.3466 459.522 18.0317C458.762 18.6977 458.197 19.4588 457.846 20.277C457.476 21.0952 457.301 21.9515 457.301 22.8078C457.301 23.9876 457.671 25.0532 458.411 26.0617C459.23 27.1653 460.36 28.2309 461.763 29.2394C463.224 30.286 464.9 31.3135 466.751 32.284C468.68 33.2925 470.628 34.32 472.635 35.3666C474.642 36.4131 476.649 37.5168 478.578 38.6395C480.566 39.8002 482.378 41.0941 483.956 42.4832C485.573 43.9104 486.879 45.5087 487.872 47.2023C488.905 48.9909 489.412 51.008 489.412 53.1962C489.412 55.5938 488.944 57.8772 488.028 59.9894C487.093 62.1206 485.671 64.0044 483.82 65.5838C481.988 67.1441 479.689 68.3809 477 69.2753C474.252 70.1316 471.135 70.5882 467.628 70.5882Z" fill="white"/>
<path d="M396.815 11.7647C400.005 12.324 399.324 15.9867 395.274 19.938C394.432 20.768 393.5 21.5438 392.55 22.2475C390.722 23.0594 389.36 18.9276 389.413 18.6209C389.431 18.5126 389.575 18.4405 389.664 18.3863C391.17 17.2497 391.976 15.6078 390.74 15.3913C392.675 13.8577 394.718 12.6488 396.815 11.7647Z" fill="white"/>
<path d="M406.666 9.41498C415.604 11.5386 408.111 23.8752 395.788 31.9065C391.433 34.7444 388.029 36.0186 386.907 36.4434C384.149 36.9067 384.282 31.3273 385.671 29.4546C385.804 29.2809 386.032 29.0878 386.222 28.972C390.045 27.5626 394.362 24.8598 397.747 21.5198C403.205 16.1142 404.137 11.1332 399.82 10.3803C402.102 9.68527 404.384 9.37637 406.666 9.41498Z" fill="white"/>
<path d="M410.371 9.54501C411.232 9.73535 412.392 9.96376 413.253 10.1922C416.191 11.1058 416.359 11.1629 418.081 11.9433C423.807 14.5699 421.468 23.2494 412.074 32.5569C407.808 36.7824 402.774 40.475 397.722 43.273C394.129 44.6815 392.221 39.9421 393.194 37.4677C393.474 36.7253 393.905 36.4208 394.279 36.1353C398.489 33.7941 402.718 30.7106 406.273 27.1704C414.975 18.5671 416.434 10.6109 409.567 9.41177C409.847 9.46888 410.109 9.50694 410.371 9.54501Z" fill="white"/>
<path d="M423.742 15.3582C426.367 17.3241 426.581 17.4958 428.155 19.0036L429.089 19.977C432.821 24.0041 429.516 32.6118 419.951 41.7539C409.316 51.9076 394.502 59.3893 384.528 60C380.912 59.7137 378.948 54.3315 380.581 52.9001C380.795 52.7283 381.165 52.6138 381.437 52.5565C390.749 51.9839 404.611 44.9985 414.546 35.4938C424.403 26.0654 427.164 17.2668 421.837 14.1176L423.742 15.3582Z" fill="white"/>
<path d="M431.02 23.9294C432.731 26.6916 432.994 27.1107 434.141 29.6824L434.968 31.854C436.416 36.2354 433.013 43.5124 425.249 51.1893C416.826 59.514 405.602 65.9717 396.653 68.1815C392.516 68.753 389.452 64.6192 390.994 62.981C391.219 62.7524 391.633 62.5809 391.934 62.4666C401.165 60.1807 412.746 53.5134 421.451 44.922C430.4 36.083 433.746 27.7584 430.776 23.5294L431.02 23.9294Z" fill="white"/>
<path d="M437.621 39.6945C437.659 41.086 437.659 42.9665 437.602 44.3581C437.279 47.9874 434.354 52.9143 429.036 58.0292C426.301 60.6619 423.205 63.0877 420.014 65.1751C416.899 66.9051 414.791 65.1563 415.399 63.2006C415.703 62.2039 416.405 61.6774 417.013 61.2073C420.66 58.819 424.193 56.0547 427.326 53.0459C434.525 46.1069 437.887 39.5064 437.013 35.2941C437.241 36.5917 437.545 38.3593 437.621 39.6945Z" fill="white"/>
<path d="M434.973 53.8093C434.072 56.1252 433.981 56.3607 433.116 58.0486L433.061 58.1468C432.394 59.344 431.005 61.817 427.614 65.1339C425.9 66.6844 425.882 65.389 425.882 65.1143C425.9 64.7021 426.099 63.5441 427.614 61.9151C428.137 61.4048 428.624 60.8945 429.129 60.3842C433.35 55.9093 435.839 51.6111 436.471 48.2353C436.02 50.3942 435.695 51.827 434.973 53.8093Z" fill="white"/>
<path d="M325.882 69.3927V10.5882H345.378C348.484 10.5882 351.432 10.9701 354.164 11.6956C356.935 12.4402 359.372 13.5666 361.435 15.0177C363.538 16.5069 365.209 18.3397 366.408 20.4972C367.626 22.6737 368.235 25.1939 368.235 27.9623C368.235 30.7116 367.626 33.1745 366.447 35.2555C365.268 37.3175 363.695 39.0358 361.789 40.3914C359.902 41.7279 357.721 42.7207 355.343 43.3698C352.984 43.9998 350.567 44.3244 348.11 44.3244C347.088 44.3244 346.027 44.3053 344.907 44.2671C343.787 44.2289 342.725 44.1526 341.703 44.0762C340.681 43.9807 339.718 43.8853 338.834 43.7707C338.637 43.7516 338.441 43.7135 338.264 43.6944V69.4118H325.882V69.3927ZM338.244 37.9667C339.011 38.1958 339.817 38.3867 340.642 38.5394C341.782 38.7685 342.981 38.8831 344.18 38.8831C346.066 38.8831 347.717 38.6158 349.113 38.0621C350.469 37.5275 351.628 36.802 352.513 35.8856C353.417 34.9692 354.085 33.8809 354.517 32.6399C354.969 31.3607 355.205 29.967 355.205 28.5159C355.205 26.8167 354.91 25.2702 354.321 23.9147C353.731 22.5591 352.925 21.3945 351.903 20.4399C350.881 19.4853 349.643 18.7216 348.248 18.2061C346.852 17.6715 345.32 17.4042 343.708 17.4042H338.264V37.9667H338.244Z" fill="white"/>
<path d="M120 69.4118H127.721L136.56 50.6952H158.877L167.426 69.4118H180L152.965 10.5882H147.67L120 69.4118ZM139.467 44.3736L147.805 26.6692L155.911 44.3736H139.467Z" fill="#244D66"/>
<path d="M234.874 10.5882H224.317L195.961 33.9306V10.5882H183.529V69.4118H195.961V42.6339L225.975 69.4118H242.353L204.505 35.5911L234.874 10.5882Z" fill="#244D66"/>
<path d="M271.833 10.5882L244.706 69.4118H252.276L260.941 50.7013H282.82L291.202 69.4118H303.529L277.025 10.5882H271.833ZM263.791 44.3626L271.966 26.664L279.913 44.3626H263.791Z" fill="#244D66"/>
<path d="M104.142 36.1637H78.2305V10.5882H65.8823V69.4118H78.2305V42.4812H104.142V69.4118H116.471V10.5882H104.142V36.1637Z" fill="#244D66"/>
<path d="M45.4459 17.7074C42.5806 15.2071 38.9753 13.3748 34.7059 12.2487C30.5313 11.1608 25.5028 10.5882 19.7533 10.5882H0V69.4118H21.9545C27.2296 69.4118 31.9924 68.6292 36.1101 67.0833C40.2467 65.5373 43.7761 63.3805 46.6034 60.6894C49.4307 57.9792 51.6129 54.7727 53.093 51.1463C54.5541 47.5199 55.2941 43.6073 55.2941 39.5038C55.2941 35.1903 54.4592 31.144 52.8273 27.4795C51.1765 23.834 48.6907 20.5321 45.4459 17.7074ZM41.7457 39.7328C41.7457 43.4928 41.1765 46.8328 40.0759 49.6767C38.9753 52.5014 37.4383 54.9063 35.5408 56.8149C33.6433 58.7235 31.3852 60.1931 28.8235 61.1665C26.2429 62.1399 23.4345 62.6553 20.4934 62.6553H11.9545V17.4402H20.5313C23.6243 17.4402 26.4896 17.9937 29.0892 19.0816C31.6698 20.1695 33.9279 21.6964 35.7875 23.6432C37.6471 25.5899 39.1271 27.9566 40.1708 30.6669C41.2144 33.3962 41.7457 36.4309 41.7457 39.7328Z" fill="#244D66"/>
</g>
<defs>
<clipPath id="clip0_2_2">
<rect width="557.65" height="80" fill="white"/>
</clipPath>
</defs>
</svg>
